<svg fill="none" xmlns="http://www.w3.org/2000/svg" preserveAspectRatio="none">
  <path fill-rule="evenodd" clip-rule="evenodd"
    d="M1770 0H0v93.896l48.675-12.584c4.006-1.005 8.312-2.09 12.897-3.245l.01-.003h.003C114.401 64.753 204.076 42.153 295 25.945 393.825 8.329 491.175-1.738 590 3.296c73.53 3.745 146.244 15.85 219.356 28.02h.001c25.151 4.187 50.348 8.381 75.643 12.246 26.254 4.012 53.759 8.475 82.145 13.082C1130.77 83.197 1323.68 114.5 1475 91.379c92.62-14.152 183.95-37.148 236.34-50.338l9.98-2.512L1770 25.946V0Z"
    fill="#150E3D" />
</svg>
