<svg>
  <defs>
    <clipPath id="jsne-blob-section-secondary-top" clipPathUnits="objectBoundingBox"><path d="M1,0.239 L0.973,0.365 L0.97,0.376 L0.967,0.39 C0.937,0.522,0.886,0.752,0.833,0.894 C0.748,1,0.639,0.812,0.546,0.546 L0.546,0.546 C0.53,0.5,0.515,0.456,0.5,0.416 C0.486,0.377,0.471,0.335,0.457,0.293 C0.416,0.171,0.375,0.05,0.333,0.013 C0.278,-0.037,0.223,0.063,0.167,0.239 C0.115,0.402,0.065,0.628,0.035,0.761 C0.032,0.772,0.03,0.783,0.027,0.793 L0,0.919 V1 H1 V0.239"></path></clipPath>
  </defs>
</svg>
