<svg viewBox="0 0 1525 258" fill="none" xmlns="http://www.w3.org/2000/svg" preserveAspectRatio="none"  role="presentation">
  <path fill-rule="evenodd" clip-rule="evenodd"
    d="M1525 258V188.454C1425.46 248.818 1285.42 258.171 1111.5 163.164C879.169 36.2513 630.344 48.9342 418.489 59.7326C287.457 66.4114 170.568 72.3694 80.4716 44.1326C55.2162 36.2174 27.6324 20.818 0 0.236328V258H1525Z"
    fill="#150E3D" />
  <path opacity="0.25" fill-rule="evenodd" clip-rule="evenodd"
    d="M0 1V155.298C18.3213 173.753 39.1573 187.528 62.243 194.764C156.129 224.188 279.108 196.423 416.866 165.322L416.871 165.321C424.912 163.505 432.954 161.678 440.998 159.852L441.013 159.848C641.209 114.377 842.46 68.6665 1060 187.5C1250.01 289.755 1408.05 269.151 1516.94 193.942C1417.96 250.007 1280.78 256.398 1111.5 163.928C879.169 37.0149 630.344 49.6978 418.489 60.4963C287.457 67.1751 170.568 73.1331 80.4716 44.8962C55.2162 36.9811 27.6324 21.5816 0 1Z"
    fill="url(#paint0_linear_1907_1414)" />
  <defs>
    <linearGradient id="paint0_linear_1907_1414" x1="-5.65105e-06" y1="257.375" x2="1417.85" y2="-266.953"
      gradientUnits="userSpaceOnUse">
      <stop stop-color="#534B7E" />
      <stop offset="0.515625" stop-color="#3C3565" />
      <stop offset="1" stop-color="#150E3D" />
    </linearGradient>
  </defs>
</svg>
