<svg width="120" height="120" fill="none" xmlns="http://www.w3.org/2000/svg">
  <path fill="#DAD9E8" d="M0 0h120v120H0z" />
  <g style="mix-blend-mode:luminosity" opacity=".25" filter="url(#a)">
    <path
      d="M35.27 89.214c1.09.544 2.239 1.028 3.327 1.33 2.536.634 5.08 1.156 7.621 1.754 5.052 1.33 9.948 3.077 15.06 4.355 2.244.673 5.157-.05 7.38-.605 2.15-.632 4.72-2.06 6.29-3.629 3.653-3.856 7.543-7.494 11.25-11.31l5.625-5.625c1.86-1.86 3.128-3.765 3.871-6.29.302-1.029.665-2.36.726-3.63.312-6.247-3.035-12.84-4.476-18.81-.682-2.593-1.527-5.141-2.177-7.742-.805-3.22-3.075-6.674-6.049-8.347-2.342-1.515-5.89-2.35-8.649-2.963-5.863-1.173-11.606-3.02-17.42-4.416-2.336-.519-5.05-.043-7.318.605-1.028.242-2.298.665-3.447 1.33-7.694 4.526-13.61 13.065-19.84 19.295-1.685 1.686-3.27 3.92-3.93 6.23-.558 2.228-.894 5.133-.303 7.379 2.287 8.386 3.19 18.452 7.44 26.008 1.007 1.903 3.151 4.03 5.02 5.08Z"
      fill="url(#b)" />
    <path opacity=".75"
      d="M59.585 36.109c1.089 0 1.815.302 2.117.847.303 0 .484.241.484.725 0 .908-1.573 4.355-4.718 10.525-1.33 2.721-3.568 5.746-6.714 9.193-1.935 1.754-4.294 2.661-7.197 2.661-2.238 0-3.75-1.088-4.718-3.266-.181-.302-.242-.725-.242-1.33v-.484s.484-5.08 1.573-7.077h.242c.665.303 1.028.847 1.089 1.33.18 0 .241-.725.241-.725h.484v1.21c-.06 0 0-.182 0-.605h.242l.121.242c.303 0 .545-.545.847-1.573l.484-.12c0 .483.726.725.726.725v-.484h.242l-.726 6.653.242 1.21h.242c1.21-.363 2.963-2.238 5.262-5.625 2.056-3.085 4.052-6.956 6.048-11.734 0-1.21 1.21-2.056 3.63-2.298Zm21.17-.303h.242s.907.363 1.512.968l.12.242h.061l-.121.484.121 1.633c-.121 1.391-.665 2.117-1.512 2.117h-.605s-7.44.786-12.339 3.024h.06s9.618 1.633 10.223 2.843c.605.363.907.968.907 1.754-.242 2.782-.545 4.173-1.028 4.173-1.875 1.452-3.992 2.54-6.29 3.387-3.448 1.21-8.226 2.54-14.275 4.053l-.484-.121v-.121l1.21-.363v-.242l-1.21.242v-.121c0-.181.182-.302.605-.363v-.605l-1.028-.242.423-.12v-.363c-.665 0-.786-.121-.786-.363l-.121-.121h-.302l.604-.121v-.484h-.725c0 .181-.121.12-.484.12v-.12c.12-.424 3.508-1.633 10.343-3.569 4.536-1.572 7.137-2.6 7.862-3.145-7.137-.484-10.766-1.21-10.766-2.298-.846-.545-1.27-1.331-1.27-2.42 0-.967.484-2.117 1.512-3.387 6.17-4.234 17.54-6.35 17.54-6.35ZM61.641 61.815h.907c1.089 0 1.996.483 2.661 1.451v.363l-4.838 11.976c-1.15 2.117-2.299 5.08-3.448 8.951l-.363.242h-.363l-.484-.242-.12.847h-.243l-.605-.363-1.27.121-.907-1.149-3.387-14.335h-.121l-5.08 10.585c-.545 1.21-1.029 2.6-1.27 4.173l.12.121v-.544s-.302.968-.484.786h-.363l-1.21-.605h-.241l-.484.182-.363-.121-.242.242-.12.302h-.122l-.12-.302-1.09-1.512V82.5c0-1.452 1.936-5.927 5.746-13.488l2.904-6.23c.423-.363 1.814-.605 4.112-.726.545 0 1.755 1.21 1.755 1.21v.181c0 2.299 1.39 5.928 2.358 12.642 1.15-1.936 3.327-7.621 4.779-12.4.302-1.088.786-1.572 1.451-1.572-.06-.182.182-.242.545-.302Zm17.6.483c0 .303.182.484.484.484v.242h-.605v.121c.545 0 .726.06.605.242v.242h-.363s.242.242.968.242v.363h-.605 1.391l1.09.605h-.061v.12c.423 0 .605.061.605.243 0 .302-1.452.604-4.234.907-.968 0-2.783.544-5.504 1.633l-1.27 2.54h-.121s1.632-.242 3.629-.302l.241.363-.604.12v.122c.846 0 1.21.06 1.21.242l-.606.242v-.182h.242l-.242.605c0 .423.303.726.605.968v.363c.424 0 .605.06.605.242v.241c0 .242-2.298.787-6.956 1.815-.604 0-1.33 1.089-2.237 3.327l7.983-1.331v.423h.121l.545-.12c.12.423.302.604.544.604v.121s-.12.121-.363 0h-.242v.605h.605-.484l.484.242v.302l-.12.121c1.148 0 1.753.182 1.874.605l-.12.121c.423.06.604.181.604.363-.665.423-3.085 1.028-7.137 1.754-4.718.786-7.137 1.512-7.137 2.117-.121.423-.484.726-1.028 1.028h-.121l-.666-.605h-.242l-.605.121c0-.181-.362-.423-1.149-.605l-.363.06-.12-.12v-.665h-.242l-.121.605h-.121l-.121-.121v-.121c.665-2.36 3.508-9.013 8.71-20.02 0-.787.544-1.27 1.632-1.392l4.537.121 4.596-.363Z"
      fill="#150E3D" />
    <path
      d="M58.376 34.9c1.088 0 1.814.302 2.116.846.303 0 .484.242.484.726 0 .907-1.572 4.355-4.718 10.524-1.33 2.722-3.568 5.746-6.713 9.193-1.936 1.755-4.294 2.662-7.198 2.662-2.238 0-3.75-1.089-4.718-3.266-.181-.303-.241-.726-.241-1.331v-.484s.483-5.08 1.572-7.077h.242c.665.303 1.028.847 1.089 1.331.181 0 .242-.726.242-.726h.484v1.21c-.06 0 0-.181 0-.605h.241l.121.242c.303 0 .545-.544.847-1.573l.484-.12c0 .483.726.725.726.725v-.483h.242l-.726 6.653.242 1.21h.242c1.21-.364 2.964-2.239 5.262-5.626 2.056-3.084 4.053-6.955 6.048-11.733 0-1.21 1.21-2.057 3.63-2.299Zm21.169-.303h.242s.907.363 1.512.967l.12.242h.182l-.12.484.12 1.633c-.12 1.391-.665 2.117-1.512 2.117h-.726s-7.44.787-12.338 3.024h.06s9.617 1.633 10.222 2.843c.605.363.907.968.907 1.754-.242 2.782-.544 4.174-1.028 4.174-1.875 1.451-3.992 2.54-6.29 3.387-3.448 1.21-8.226 2.54-14.275 4.052l-.483-.12v-.122l1.21-.363v-.242l-1.21.242v-.12c0-.182.181-.303.604-.364v-.604l-1.028-.242.424-.121v-.363c-.666 0-.787-.121-.787-.363l-.12-.121h-.303l.605-.121v-.484h-.726c0 .181-.121.121-.484.121v-.121c.121-.423 3.508-1.633 10.343-3.569 4.536-1.572 7.137-2.6 7.863-3.145-7.137-.483-10.766-1.21-10.766-2.298-.847-.544-1.27-1.33-1.27-2.42 0-.967.483-2.116 1.511-3.387 6.17-4.233 17.54-6.35 17.54-6.35ZM60.432 60.605h.907c1.089 0 1.996.484 2.662 1.451v.363l-4.84 11.976c-1.148 2.117-2.298 5.08-3.447 8.952l-.363.242h-.363l-.483-.242-.122.847h-.241l-.605-.363-1.27.12-.908-1.149-3.387-14.334h-.12L42.77 79.052c-.545 1.21-1.029 2.601-1.27 4.174l.12.12v-.544s-.302.968-.483.787h-.363l-1.21-.605h-.242l-.484.181-.363-.12-.242.241-.12.303h-.122l-.12-.303-1.09-1.512v-.484c0-1.451 1.936-5.927 5.747-13.488l2.903-6.23c.423-.362 1.814-.604 4.113-.725.544 0 1.754 1.21 1.754 1.21v.18c.544 2.541 1.33 5.444 2.359 12.642 1.572-4.355 3.326-7.621 4.778-12.4.302-1.088.786-1.572 1.452-1.572-.06-.181.181-.242.544-.302Zm17.6.484c0 .302.182.483.485.483v.242h-.605v.121c.544 0 .726.06.605.242v.242h-.363s.242.242.967.242v.363h-.604 1.39l1.09.605h-.061v.12c.423 0 .605.061.605.243 0 .302-1.452.605-4.234.907-.968 0-2.782.544-5.504 1.633l-1.27 2.54h-.121s1.633-.241 3.629-.302l.242.363-.605.12v.122c.847 0 1.21.06 1.21.242l-.605.242v-.182h.242l-.242.605c0 .424.302.726.605.968v.363c.423 0 .604.06.604.242v.242c0 .242-2.298.786-6.955 1.814-.605 0-1.33 1.089-2.238 3.327l7.984-1.33v.423h.12l.545-.121c.121.423.303.604.544.604v.121s-.12.121-.363 0h-.241v.605h.604-.484l.484.242v.303l-.12.12c1.149 0 1.754.182 1.874.605l-.12.121c.423.06.604.182.604.363-.665.424-3.084 1.029-7.137 1.754-4.718.787-7.137 1.512-7.137 2.117-.12.424-.484.726-1.028 1.028h-.121l-.665-.604H61.4l-.605.12c0-.18-.363-.423-1.15-.604l-.362.06-.121-.12v-.666h-.242l-.121.605h-.121l-.121-.121v-.121c.665-2.359 3.508-9.012 8.71-20.02 0-.787.544-1.27 1.633-1.392l4.536.122 4.597-.363Z"
      fill="url(#c)" />
  </g>
  <defs>
    <linearGradient id="b" x1="18.341" y1="110.773" x2="112.14" y2="103.075" gradientUnits="userSpaceOnUse">
      <stop stop-color="#A26BFC" />
      <stop offset=".516" stop-color="#682EC6" />
      <stop offset=".974" stop-color="#4220A3" />
    </linearGradient>
    <linearGradient id="c" x1="31.46" y1="84.193" x2="88.125" y2="81.561" gradientUnits="userSpaceOnUse">
      <stop stop-color="#FFE358" />
      <stop offset=".516" stop-color="#F9CC2F" />
      <stop offset="1" stop-color="#FFC01E" />
    </linearGradient>
    <filter id="a" x="18.5" y="21.5" width="85" height="85" filterUnits="userSpaceOnUse"
      color-interpolation-filters="sRGB">
      <feFlood flood-opacity="0" result="BackgroundImageFix" />
      <feColorMatrix in="SourceAlpha" values="0 0 0 0 0 0 0 0 0 0 0 0 0 0 0 0 0 0 127 0" result="hardAlpha" />
      <feOffset dx="1" dy="4" />
      <feGaussianBlur stdDeviation="2.5" />
      <feColorMatrix values="0 0 0 0 0.0817594 0 0 0 0 0.0564063 0 0 0 0 0.2375 0 0 0 0.25 0" />
      <feBlend in2="BackgroundImageFix" result="effect1_dropShadow_1931_1469" />
      <feBlend in="SourceGraphic" in2="effect1_dropShadow_1931_1469" result="shape" />
    </filter>
  </defs>
</svg>
