<svg width="22" height="22" viewBox="0 0 22 22" fill="none" xmlns="http://www.w3.org/2000/svg">
<rect opacity="0.35" x="2" y="2" width="18" height="18" rx="2" stroke="#3C3562" stroke-width="2.25"/>
<path d="M15.8238 7.95268C15.4608 8.11222 15.0733 8.2209 14.6652 8.27052C15.081 8.01994 15.4009 7.62501 15.5523 7.15379C15.1622 7.3814 14.73 7.54709 14.2699 7.63936C13.9024 7.24607 13.3787 7 12.7971 7C11.6829 7 10.7794 7.90347 10.7794 9.01651C10.7794 9.17645 10.7979 9.33024 10.8315 9.47747C9.15415 9.39832 7.6675 8.59286 6.67258 7.37525C6.49746 7.67135 6.39945 8.01543 6.39945 8.39027C6.39945 9.09156 6.75624 9.70795 7.29677 10.0701C6.96581 10.0594 6.65453 9.96837 6.38304 9.81745V9.84247C6.38304 10.8206 7.07736 11.6363 8.00133 11.8221C7.83196 11.8676 7.65315 11.8922 7.46983 11.8922C7.34106 11.8922 7.21761 11.8799 7.09417 11.8569C7.35295 12.6579 8.09689 13.2419 8.98231 13.2583C8.29333 13.7992 7.42021 14.1215 6.47983 14.1215C6.31989 14.1215 6.16035 14.1121 6 14.0941C6.89773 14.6658 7.9554 15 9.0992 15C12.8123 15 14.8403 11.9258 14.8403 9.26421C14.8403 9.1785 14.8403 9.09197 14.8342 9.00584C15.2283 8.72328 15.5724 8.36607 15.843 7.96089L15.8238 7.95268Z" fill="#150E3D"/>
</svg>
