<svg width="18" height="20" viewBox="0 0 18 20" fill="none" xmlns="http://www.w3.org/2000/svg">
<g clip-path="url(#clip0)">
<path opacity="0.35" d="M16.7148 4.375C16.3741 4.37593 16.0476 4.50792 15.8067 4.74214C15.5658 4.97636 15.43 5.29376 15.4291 5.625V8.4375C15.4291 8.52038 15.3952 8.59987 15.3349 8.65847C15.2747 8.71708 15.1929 8.75 15.1077 8.75H14.4648C14.3796 8.75 14.2978 8.71708 14.2375 8.65847C14.1772 8.59987 14.1434 8.52038 14.1434 8.4375V2.5C14.1434 2.16848 14.0079 1.85054 13.7668 1.61612C13.5257 1.3817 13.1987 1.25 12.8577 1.25C12.5167 1.25 12.1896 1.3817 11.9485 1.61612C11.7074 1.85054 11.5719 2.16848 11.5719 2.5V8.4375C11.5719 8.52038 11.5381 8.59987 11.4778 8.65847C11.4175 8.71708 11.3358 8.75 11.2505 8.75H10.6077C10.5224 8.75 10.4407 8.71708 10.3804 8.65847C10.3201 8.59987 10.2862 8.52038 10.2862 8.4375V1.25C10.2862 0.918479 10.1508 0.600537 9.90965 0.366117C9.66853 0.131696 9.34151 0 9.00051 0C8.65952 0 8.3325 0.131696 8.09138 0.366117C7.85026 0.600537 7.7148 0.918479 7.7148 1.25V8.4375C7.7148 8.52038 7.68094 8.59987 7.62066 8.65847C7.56038 8.71708 7.47862 8.75 7.39337 8.75H6.75052C6.66527 8.75 6.58351 8.71708 6.52323 8.65847C6.46295 8.59987 6.42909 8.52038 6.42909 8.4375V2.5C6.42909 2.16848 6.29363 1.85054 6.05251 1.61612C5.81139 1.3817 5.48436 1.25 5.14337 1.25C4.80238 1.25 4.47535 1.3817 4.23424 1.61612C3.99312 1.85054 3.85766 2.16848 3.85766 2.5V11.9141L2.90944 10.6445C2.78519 10.4786 2.62853 10.3381 2.44841 10.231C2.26829 10.1239 2.06824 10.0523 1.85968 10.0204C1.43848 9.95595 1.00818 10.0568 0.663462 10.3008C0.31874 10.5448 0.087826 10.9119 0.0215185 11.3214C-0.044789 11.7309 0.0589416 12.1492 0.309891 12.4844L5.35632 19.2305C5.5352 19.4696 5.76963 19.6643 6.04052 19.7987C6.31142 19.9331 6.61112 20.0034 6.91525 20.0039H14.8545C15.2892 20.0042 15.7111 19.8615 16.0518 19.5991C16.3924 19.3367 16.6318 18.97 16.7309 18.5586L17.7956 14.1562C17.9238 13.6141 17.9925 13.0602 18.0005 12.5039V5.625C17.9996 5.29376 17.8638 4.97636 17.6229 4.74214C17.382 4.50792 17.0555 4.37593 16.7148 4.375ZM14.1876 14.5781L11.2706 17.3672C11.1791 17.4536 11.0566 17.5019 10.9291 17.5019C10.8016 17.5019 10.679 17.4536 10.5876 17.3672L7.6706 14.5781C7.46879 14.3863 7.31118 14.1551 7.20821 13.8996C7.10524 13.6442 7.05926 13.3704 7.07331 13.0963C7.08737 12.8223 7.16113 12.5543 7.28973 12.3101C7.41833 12.0659 7.59883 11.851 7.81927 11.6797C8.64293 11.0273 9.87239 11.1445 10.6318 11.8672L10.9291 12.1523L11.2264 11.8672C11.9818 11.1445 13.2112 11.0273 14.0389 11.6797C14.2589 11.8513 14.4389 12.0664 14.5671 12.3106C14.6954 12.5549 14.7689 12.8228 14.7828 13.0967C14.7967 13.3706 14.7508 13.6442 14.648 13.8996C14.5452 14.1549 14.3878 14.3862 14.1864 14.5781H14.1876Z" fill="#3C3562"/>
<path d="M7.81752 11.6796C8.64118 11.0273 9.87064 11.1445 10.63 11.8671L10.9273 12.1523L11.2247 11.8671C11.98 11.1445 13.2095 11.0273 14.0372 11.6796C14.2572 11.8512 14.4373 12.0662 14.5657 12.3104C14.694 12.5546 14.7676 12.8225 14.7817 13.0964C14.7957 13.3703 14.7499 13.6439 14.6472 13.8993C14.5445 14.1548 14.3872 14.3861 14.1858 14.5781L11.2689 17.3671C11.1774 17.4535 11.0549 17.5019 10.9273 17.5019C10.7998 17.5019 10.6773 17.4535 10.5858 17.3671L7.66886 14.5781C7.46704 14.3863 7.30943 14.155 7.20646 13.8996C7.10349 13.6441 7.05751 13.3703 7.07156 13.0963C7.08562 12.8223 7.15939 12.5543 7.28799 12.3101C7.41659 12.0658 7.59708 11.8509 7.81752 11.6796Z" fill="#150E3D"/>
</g>
<defs>
<clipPath id="clip0">
<rect width="18" height="20" fill="white"/>
</clipPath>
</defs>
</svg>
