<svg width="22" height="22" viewBox="0 0 22 22" fill="none" xmlns="http://www.w3.org/2000/svg">
<rect opacity="0.35" x="2" y="2" width="18" height="18" rx="2" stroke="#3C3562" stroke-width="2.25"/>
<path d="M8.79071 14.7508H7.13214V8.90898H8.79071V14.7508ZM7.96054 8.11211C7.43018 8.11211 7 7.63164 7 7.05156C7 6.77293 7.1012 6.50571 7.28133 6.30869C7.46147 6.11166 7.70579 6.00098 7.96054 6.00098C8.21529 6.00098 8.4596 6.11166 8.63974 6.30869C8.81987 6.50571 8.92107 6.77293 8.92107 7.05156C8.92107 7.63164 8.49071 8.11211 7.96054 8.11211ZM14.9982 14.7508H13.3432V11.907C13.3432 11.2293 13.3307 10.3602 12.4809 10.3602C11.6186 10.3602 11.4864 11.0965 11.4864 11.8582V14.7508H9.82964V8.90898H11.4204V9.70586H11.4436C11.665 9.24688 12.2059 8.7625 13.0129 8.7625C14.6914 8.7625 15 9.97148 15 11.5418V14.7508H14.9982Z" fill="#150E3D"/>
</svg>
