<svg width="21" height="16" viewBox="0 0 21 16" fill="none" xmlns="http://www.w3.org/2000/svg">
<path opacity="0.35" d="M3.15 6.99994C3.56534 6.99994 3.97135 6.88264 4.3167 6.66288C4.66204 6.44312 4.9312 6.13076 5.09015 5.76531C5.24909 5.39985 5.29068 4.99772 5.20965 4.60976C5.12862 4.2218 4.92861 3.86543 4.63492 3.58573C4.34123 3.30602 3.96705 3.11554 3.55969 3.03837C3.15233 2.9612 2.73009 3.00081 2.34636 3.15218C1.96264 3.30356 1.63466 3.5599 1.40391 3.8888C1.17316 4.2177 1.05 4.60438 1.05 4.99994C1.05052 5.53022 1.27194 6.03864 1.66565 6.41361C2.05936 6.78857 2.59321 6.99944 3.15 6.99994ZM18.9 7.99994H16.8C16.2454 7.99937 15.7131 8.20841 15.3202 8.58119C15.9848 8.92569 16.5545 9.41497 16.9828 10.0091C17.411 10.6033 17.6857 11.2854 17.7844 11.9999H19.95C20.2285 11.9999 20.4955 11.8946 20.6925 11.707C20.8894 11.5195 21 11.2652 21 10.9999V9.99994C20.9995 9.46966 20.7781 8.96124 20.3843 8.58628C19.9906 8.21131 19.4568 8.00044 18.9 7.99994ZM2.1 7.99994C1.54321 8.00044 1.00936 8.21131 0.615651 8.58628C0.221938 8.96124 0.000521262 9.46966 0 9.99994V10.9999C0 11.2652 0.110625 11.5195 0.307538 11.707C0.504451 11.8946 0.771523 11.9999 1.05 11.9999H3.21234C3.31232 11.2854 3.58787 10.6034 4.01662 10.0094C4.44536 9.41538 5.0152 8.92605 5.67984 8.58119C5.28687 8.20841 4.75465 7.99937 4.2 7.99994H2.1ZM17.85 6.99994C18.2653 6.99994 18.6714 6.88264 19.0167 6.66288C19.362 6.44312 19.6312 6.13076 19.7901 5.76531C19.9491 5.39985 19.9907 4.99772 19.9096 4.60976C19.8286 4.2218 19.6286 3.86543 19.3349 3.58573C19.0412 3.30602 18.667 3.11554 18.2597 3.03837C17.8523 2.9612 17.4301 3.00081 17.0464 3.15218C16.6626 3.30356 16.3347 3.5599 16.1039 3.8888C15.8732 4.2177 15.75 4.60438 15.75 4.99994C15.7505 5.53022 15.9719 6.03864 16.3657 6.41361C16.7594 6.78857 17.2932 6.99944 17.85 6.99994Z" fill="#3C3562"/>
<path d="M13.0199 8.99994H12.7476C12.0475 9.32583 11.2792 9.49675 10.5 9.49994C9.69276 9.49994 8.93808 9.31244 8.25229 8.99994H7.97995C6.97751 9.00019 6.01621 9.37955 5.30738 10.0546C4.59854 10.7297 4.20021 11.6452 4.19995 12.5999V13.4999C4.19995 13.8978 4.36589 14.2793 4.66126 14.5606C4.95663 14.8419 5.35724 14.9999 5.77495 14.9999H15.2249C15.6427 14.9999 16.0433 14.8419 16.3386 14.5606C16.634 14.2793 16.7999 13.8978 16.7999 13.4999V12.5999C16.7997 11.6452 16.4014 10.7297 15.6925 10.0546C14.9837 9.37955 14.0224 9.00019 13.0199 8.99994ZM10.5 7.99994C11.2268 7.99994 11.9373 7.79467 12.5417 7.41008C13.146 7.0255 13.6171 6.47887 13.8952 5.83933C14.1734 5.19979 14.2461 4.49606 14.1043 3.81712C13.9625 3.13819 13.6125 2.51455 13.0986 2.02507C12.5846 1.53558 11.9298 1.20224 11.2169 1.06719C10.504 0.932144 9.76511 1.00146 9.09359 1.26636C8.42207 1.53127 7.84811 1.97987 7.4443 2.55544C7.04049 3.13102 6.82495 3.80771 6.82495 4.49994C6.82469 4.95964 6.91957 5.41487 7.10417 5.83962C7.28876 6.26437 7.55945 6.65031 7.90076 6.97536C8.24206 7.30042 8.64729 7.55822 9.09328 7.73402C9.53927 7.90982 10.0173 8.00019 10.5 7.99994Z" fill="#150E3D"/>
</svg>
