<svg width="18" height="18" viewBox="0 0 18 18" fill="none" xmlns="http://www.w3.org/2000/svg">
<g clip-path="url(#clip0)">
<path opacity="0.35" d="M0.236631 14.8774C0.0778517 15.0562 -0.00664858 15.2888 0.000409012 15.5278C0.0074666 15.7668 0.105549 15.994 0.2746 16.1631L1.83694 17.7254C2.00605 17.8945 2.23333 17.9925 2.47231 17.9995C2.71129 18.0065 2.94391 17.9219 3.12261 17.7631L12.0938 9.84377L8.15628 5.90627L0.236631 14.8774ZM11.051 1.2558L10.2558 2.05103L15.949 7.74424L16.7442 6.94865L11.051 1.2558Z" fill="#3C3562"/>
<path d="M10.1791 2.12799C9.34102 2.96612 8.96414 4.08092 9.01898 5.1785L12.8215 8.9803C13.9187 9.03584 15.0339 8.65897 15.872 7.82014L15.949 7.7435L10.2558 2.051L10.1791 2.12799ZM16.8209 1.17877C16.4471 0.804925 16.0033 0.508369 15.5149 0.30604C15.0265 0.103711 14.5031 -0.000427246 13.9744 -0.000427246C13.4458 -0.000427246 12.9223 0.103711 12.4339 0.30604C11.9455 0.508369 11.5018 0.804925 11.128 1.17877L11.051 1.25541L16.7442 6.94862L16.8209 6.87198C17.1947 6.49821 17.4913 6.05445 17.6936 5.56606C17.8959 5.07766 18.0001 4.5542 18.0001 4.02555C18.0001 3.4969 17.8959 2.97344 17.6936 2.48504C17.4913 1.99665 17.1947 1.55254 16.8209 1.17877ZM7.875 18H10.125V11.5819L7.875 13.5678V18Z" fill="#150E3D"/>
</g>
<defs>
<clipPath id="clip0">
<rect width="18" height="18" fill="white"/>
</clipPath>
</defs>
</svg>
