<svg viewBox="0 0 18 20" xmlns="http://www.w3.org/2000/svg">
  <path data-primary="" class="__primary"
    d="M0 7.5V18.125C0 18.6223 0.197544 19.0992 0.549175 19.4508C0.900805 19.8025 1.37772 20 1.875 20H15.625C16.1223 20 16.5992 19.8025 16.9508 19.4508C17.3025 19.0992 17.5 18.6223 17.5 18.125V7.5H0ZM7.5 14.375C7.5 14.5408 7.43415 14.6997 7.31694 14.8169C7.19973 14.9342 7.04076 15 6.875 15H3.125C2.95924 15 2.80027 14.9342 2.68306 14.8169C2.56585 14.6997 2.5 14.5408 2.5 14.375V10.625C2.5 10.4592 2.56585 10.3003 2.68306 10.1831C2.80027 10.0658 2.95924 10 3.125 10H6.875C7.04076 10 7.19973 10.0658 7.31694 10.1831C7.43415 10.3003 7.5 10.4592 7.5 10.625V14.375ZM11.875 5H13.125C13.2908 5 13.4497 4.93415 13.5669 4.81694C13.6842 4.69973 13.75 4.54076 13.75 4.375V0.625C13.75 0.45924 13.6842 0.300269 13.5669 0.183058C13.4497 0.065848 13.2908 0 13.125 0L11.875 0C11.7092 0 11.5503 0.065848 11.4331 0.183058C11.3158 0.300269 11.25 0.45924 11.25 0.625V4.375C11.25 4.54076 11.3158 4.69973 11.4331 4.81694C11.5503 4.93415 11.7092 5 11.875 5ZM4.375 5H5.625C5.79076 5 5.94973 4.93415 6.06694 4.81694C6.18415 4.69973 6.25 4.54076 6.25 4.375V0.625C6.25 0.45924 6.18415 0.300269 6.06694 0.183058C5.94973 0.065848 5.79076 0 5.625 0L4.375 0C4.20924 0 4.05027 0.065848 3.93306 0.183058C3.81585 0.300269 3.75 0.45924 3.75 0.625V4.375C3.75 4.54076 3.81585 4.69973 3.93306 4.81694C4.05027 4.93415 4.20924 5 4.375 5Z" />
  <path data-secondary="" class="__secondary"
    d="M17.5 4.375V7.5H0V4.375C0 3.87772 0.197544 3.40081 0.549175 3.04917C0.900805 2.69754 1.37772 2.5 1.875 2.5H3.75V4.375C3.75 4.54076 3.81585 4.69973 3.93306 4.81694C4.05027 4.93415 4.20924 5 4.375 5H5.625C5.79076 5 5.94973 4.93415 6.06694 4.81694C6.18415 4.69973 6.25 4.54076 6.25 4.375V2.5H11.25V4.375C11.25 4.54076 11.3158 4.69973 11.4331 4.81694C11.5503 4.93415 11.7092 5 11.875 5H13.125C13.2908 5 13.4497 4.93415 13.5669 4.81694C13.6842 4.69973 13.75 4.54076 13.75 4.375V2.5H15.625C16.1223 2.5 16.5992 2.69754 16.9508 3.04917C17.3025 3.40081 17.5 3.87772 17.5 4.375Z" />
</svg>
