<svg width="22" height="22" viewBox="0 0 22 22" fill="none" xmlns="http://www.w3.org/2000/svg">
<rect opacity="0.35" x="2" y="2" width="18" height="18" rx="2" stroke="#3C3562" stroke-width="2.25"/>
<path d="M9.87708 12.4199C9.87708 12.8281 9.65 13.4961 9.1125 13.4961C8.575 13.4961 8.34792 12.8281 8.34792 12.4199C8.34792 12.0117 8.575 11.3438 9.1125 11.3438C9.65 11.3438 9.87708 12.0117 9.87708 12.4199ZM16 11.4336C16 12.0566 15.9333 12.7168 15.6354 13.2891C14.8458 14.7852 12.675 14.75 11.1208 14.75C9.54167 14.75 7.24167 14.8027 6.42083 13.2891C6.11667 12.7227 6 12.0566 6 11.4336C6 10.6152 6.28958 9.8418 6.86458 9.21484C6.75625 8.90625 6.70417 8.58203 6.70417 8.26172C6.70417 7.8418 6.80625 7.63086 7.00833 7.25C7.95208 7.25 8.55625 7.42578 9.275 7.95313C9.87917 7.81836 10.5 7.75781 11.1229 7.75781C11.6854 7.75781 12.2521 7.81445 12.7979 7.9375C13.5062 7.41602 14.1104 7.25 15.0438 7.25C15.2479 7.63086 15.3479 7.8418 15.3479 8.26172C15.3479 8.58203 15.2937 8.90039 15.1875 9.20313C15.7604 9.83594 16 10.6152 16 11.4336ZM14.6604 12.4199C14.6604 11.5625 14.1042 10.8066 13.1292 10.8066C12.7354 10.8066 12.3583 10.873 11.9625 10.9238C11.6521 10.9688 11.3417 10.9863 11.0229 10.9863C10.7063 10.9863 10.3958 10.9688 10.0833 10.9238C9.69375 10.873 9.3125 10.8066 8.91667 10.8066C7.94167 10.8066 7.38542 11.5625 7.38542 12.4199C7.38542 14.1348 9.06042 14.3984 10.5188 14.3984H11.5229C12.9875 14.3984 14.6604 14.1367 14.6604 12.4199ZM12.9396 11.3438C12.4021 11.3438 12.175 12.0117 12.175 12.4199C12.175 12.8281 12.4021 13.4961 12.9396 13.4961C13.4771 13.4961 13.7042 12.8281 13.7042 12.4199C13.7042 12.0117 13.4771 11.3438 12.9396 11.3438Z" fill="#150E3D"/>
</svg>
