<svg viewBox="0 0 18 18" fill="none" xmlns="http://www.w3.org/2000/svg">
  <path data-primary="" class="__primary" d="M12.375 5.6249C12.375 5.47571 12.3157 5.33264 12.2102 5.22715C12.1048 5.12166 11.9617 5.0624 11.8125 5.0624H6.1875C6.03832 5.0624 5.89524 5.12166 5.78975 5.22715C5.68426 5.33264 5.625 5.47571 5.625 5.6249V6.1874C5.625 6.33658 5.68426 6.47966 5.78975 6.58514C5.89524 6.69063 6.03832 6.7499 6.1875 6.7499H11.8125C11.9617 6.7499 12.1048 6.69063 12.2102 6.58514C12.3157 6.47966 12.375 6.33658 12.375 6.1874V5.6249ZM11.8125 7.8749H6.1875C6.03832 7.8749 5.89524 7.93416 5.78975 8.03965C5.68426 8.14514 5.625 8.28821 5.625 8.4374V8.9999C5.625 9.14908 5.68426 9.29216 5.78975 9.39764C5.89524 9.50313 6.03832 9.5624 6.1875 9.5624H11.8125C11.9617 9.5624 12.1048 9.50313 12.2102 9.39764C12.3157 9.29216 12.375 9.14908 12.375 8.9999V8.4374C12.375 8.28821 12.3157 8.14514 12.2102 8.03965C12.1048 7.93416 11.9617 7.8749 11.8125 7.8749ZM11.5805 1.45537C10.9898 1.02646 9.81563 -0.0106501 9 -0.000103261C8.18437 -0.0106501 7.01016 1.02646 6.41953 1.45537L5.34375 2.2499H12.6562L11.5805 1.45537ZM2.25 4.53505C1.40977 5.15732 0.748828 5.64599 0.646875 5.73037C0.445757 5.88791 0.283035 6.08906 0.17098 6.31865C0.0589251 6.54824 0.000462156 6.80028 0 7.05576L0 7.43193L2.25 9.05615V4.53505ZM17.3531 5.73037C17.2512 5.64951 16.5902 5.15732 15.75 4.53857V9.05615L18 7.43193V7.05576C17.9995 6.80028 17.9411 6.54824 17.829 6.31865C17.717 6.08906 17.5542 5.88791 17.3531 5.73037ZM9 14.6636C8.40784 14.6635 7.83082 14.4765 7.35117 14.1292L0 8.8206V16.3124C0 16.76 0.17779 17.1892 0.494257 17.5056C0.810725 17.8221 1.23995 17.9999 1.6875 17.9999H16.3125C16.7601 17.9999 17.1893 17.8221 17.5057 17.5056C17.8222 17.1892 18 16.76 18 16.3124V8.8206L10.6488 14.1292C10.1692 14.4765 9.59216 14.6635 9 14.6636Z" />
  <path data-secondary="" class="__secondary" opacity="0.35" d="M2.25 9.05631L8.01211 13.2188C8.29907 13.4279 8.64496 13.5405 9 13.5405C9.35504 13.5405 9.70093 13.4279 9.98789 13.2188L15.75 9.05631V3.37506C15.75 3.07669 15.6315 2.79054 15.4205 2.57957C15.2095 2.36859 14.9234 2.25006 14.625 2.25006H3.375C3.07663 2.25006 2.79048 2.36859 2.5795 2.57957C2.36853 2.79054 2.25 3.07669 2.25 3.37506V9.05631ZM5.625 5.62506C5.625 5.47588 5.68426 5.3328 5.78975 5.22731C5.89524 5.12183 6.03832 5.06256 6.1875 5.06256H11.8125C11.9617 5.06256 12.1048 5.12183 12.2102 5.22731C12.3157 5.3328 12.375 5.47588 12.375 5.62506V6.18756C12.375 6.33675 12.3157 6.47982 12.2102 6.58531C12.1048 6.6908 11.9617 6.75006 11.8125 6.75006H6.1875C6.03832 6.75006 5.89524 6.6908 5.78975 6.58531C5.68426 6.47982 5.625 6.33675 5.625 6.18756V5.62506ZM5.625 8.43756C5.625 8.28838 5.68426 8.1453 5.78975 8.03982C5.89524 7.93433 6.03832 7.87506 6.1875 7.87506H11.8125C11.9617 7.87506 12.1048 7.93433 12.2102 8.03982C12.3157 8.1453 12.375 8.28838 12.375 8.43756V9.00006C12.375 9.14925 12.3157 9.29232 12.2102 9.39781C12.1048 9.5033 11.9617 9.56256 11.8125 9.56256H6.1875C6.03832 9.56256 5.89524 9.5033 5.78975 9.39781C5.68426 9.29232 5.625 9.14925 5.625 9.00006V8.43756Z" />
</svg>
