<svg width="381" height="124" viewBox="0 0 381 124" fill="none" xmlns="http://www.w3.org/2000/svg">
<desc>JavaScript North East</desc>
<path d="M21.5 110.3c1.8.9 3.7 1.7 5.5 2.2 4.193 1.048 8.397 1.911 12.6 2.9 8.352 2.198 16.447 5.087 24.9 7.2 3.71 1.113 8.525-.081 12.2-1 3.556-1.046 7.805-3.405 10.4-6 6.04-6.376 12.47-12.39 18.6-18.7l9.3-9.3c3.074-3.074 5.172-6.225 6.4-10.4.5-1.7 1.1-3.9 1.2-6 .516-10.33-5.018-21.23-7.4-31.1-1.128-4.286-2.525-8.5-3.6-12.8-1.331-5.323-5.083-11.034-10-13.8-3.872-2.506-9.738-3.886-14.3-4.9-9.693-1.939-19.188-4.993-28.8-7.3-3.863-.858-8.352-.07-12.1 1-1.7.4-3.8 1.1-5.7 2.2-12.72 7.482-22.5 21.6-32.8 31.9-2.787 2.787-5.409 6.48-6.5 10.3-.921 3.684-1.477 8.486-.5 12.2 3.781 13.865 5.273 30.508 12.3 43 1.666 3.147 5.21 6.662 8.3 8.4z" fill="url(#paint0_linear)"/><path opacity=".75" d="M61.7 22.5c1.8 0 3 .5 3.5 1.4.5 0 .8.4.8 1.2 0 1.5-2.6 7.2-7.8 17.4C56 47 52.3 52 47.1 57.7c-3.2 2.9-7.1 4.4-11.9 4.4-3.7 0-6.2-1.8-7.8-5.4-.3-.5-.4-1.2-.4-2.2v-.8s.8-8.4 2.6-11.7h.4c1.1.5 1.7 1.4 1.8 2.2.3 0 .4-1.2.4-1.2h.8v2c-.1 0 0-.3 0-1h.4l.2.4c.5 0 .9-.9 1.4-2.6l.8-.2c0 .8 1.2 1.2 1.2 1.2V42h.4l-1.2 11 .4 2h.4c2-.6 4.9-3.7 8.7-9.3 3.4-5.1 6.7-11.5 10-19.4 0-2 2-3.4 6-3.8zm35-.5h.4s1.5.6 2.5 1.6l.2.4h.1l-.2.8.2 2.7c-.2 2.3-1.1 3.5-2.5 3.5h-1S84.1 32.3 76 36h.1S92 38.7 93 40.7c1 .6 1.5 1.6 1.5 2.9-.4 4.6-.9 6.9-1.7 6.9-3.1 2.4-6.6 4.2-10.4 5.6-5.7 2-13.6 4.2-23.6 6.7l-.8-.2v-.2l2-.6v-.4l-2 .4v-.2c0-.3.3-.5 1-.6v-1l-1.7-.4.7-.2v-.6c-1.1 0-1.3-.2-1.3-.6l-.2-.2H56l1-.2V57h-1.2c0 .3-.2.2-.8.2V57c.2-.7 5.8-2.7 17.1-5.9 7.5-2.6 11.8-4.3 13-5.2-11.8-.8-17.8-2-17.8-3.8-1.4-.9-2.1-2.2-2.1-4 0-1.6.8-3.5 2.5-5.6 10.2-7 29-10.5 29-10.5zM65.1 65h1.5c1.8 0 3.3.8 4.4 2.4v.6l-8 19.8c-1.9 3.5-3.8 8.4-5.7 14.8l-.6.4h-.6l-.8-.4-.2 1.4h-.4l-1-.6-2.1.2-1.5-1.9L44.5 78h-.2l-8.4 17.5c-.9 2-1.7 4.3-2.1 6.9l.2.2v-.9s-.5 1.6-.8 1.3h-.6l-2-1h-.4l-.8.3-.6-.2-.4.4-.2.5H28l-.2-.5L26 100v-.8c0-2.4 3.2-9.8 9.5-22.3l4.8-10.3c.7-.6 3-1 6.8-1.2.9 0 2.9 2 2.9 2v.3c0 3.8 2.3 9.8 3.9 20.9 1.9-3.2 5.5-12.6 7.9-20.5.5-1.8 1.3-2.6 2.4-2.6-.1-.3.3-.4.9-.5zm29.1.8c0 .5.3.8.8.8v.4h-1v.2c.9 0 1.2.1 1 .4v.4h-.6s.4.4 1.6.4v.6h-1 2.3l1.8 1H99v.2c.7 0 1 .1 1 .4 0 .5-2.4 1-7 1.5-1.6 0-4.6.9-9.1 2.7L81.8 79h-.2s2.7-.4 6-.5l.4.6-1 .2v.2c1.4 0 2 .1 2 .4l-1 .4V80h.4l-.4 1c0 .7.5 1.2 1 1.6v.6c.7 0 1 .1 1 .4v.4c0 .4-3.8 1.3-11.5 3-1 0-2.2 1.8-3.7 5.5L88 90.3v.7h.2l.9-.2c.2.7.5 1 .9 1v.2s-.2.2-.6 0H89v1h1-.8l.8.4v.5l-.2.2c1.9 0 2.9.3 3.1 1l-.2.2c.7.1 1 .3 1 .6-1.1.7-5.1 1.7-11.8 2.9-7.8 1.3-11.8 2.5-11.8 3.5-.2.7-.8 1.2-1.7 1.7h-.2l-1.1-1h-.4l-1 .2c0-.3-.6-.7-1.9-1l-.6.1-.2-.2V101h-.4l-.2 1h-.2l-.2-.2v-.2c1.1-3.9 5.8-14.9 14.4-33.1 0-1.3.9-2.1 2.7-2.3l7.5.2 7.6-.6z" fill="#150E3D"/><path d="M59.7 20.5c1.8 0 3 .5 3.5 1.4.5 0 .8.4.8 1.2 0 1.5-2.6 7.2-7.8 17.4C54 45 50.3 50 45.1 55.7c-3.2 2.9-7.1 4.4-11.9 4.4-3.7 0-6.2-1.8-7.8-5.4-.3-.5-.4-1.2-.4-2.2v-.8s.8-8.4 2.6-11.7h.4c1.1.5 1.7 1.4 1.8 2.2.3 0 .4-1.2.4-1.2h.8v2c-.1 0 0-.3 0-1h.4l.2.4c.5 0 .9-.9 1.4-2.6l.8-.2c0 .8 1.2 1.2 1.2 1.2V40h.4l-1.2 11 .4 2h.4c2-.6 4.9-3.7 8.7-9.3 3.4-5.1 6.7-11.5 10-19.4 0-2 2-3.4 6-3.8zm35-.5h.4s1.5.6 2.5 1.6l.2.4h.3l-.2.8.2 2.7c-.2 2.3-1.1 3.5-2.5 3.5h-1.2S82.1 30.3 74 34h.1S90 36.7 91 38.7c1 .6 1.5 1.6 1.5 2.9-.4 4.6-.9 6.9-1.7 6.9-3.1 2.4-6.6 4.2-10.4 5.6-5.7 2-13.6 4.2-23.6 6.7l-.8-.2v-.2l2-.6v-.4l-2 .4v-.2c0-.3.3-.5 1-.6v-1l-1.7-.4.7-.2v-.6c-1.1 0-1.3-.2-1.3-.6l-.2-.2H54l1-.2V55h-1.2c0 .3-.2.2-.8.2V55c.2-.7 5.8-2.7 17.1-5.9 7.5-2.6 11.8-4.3 13-5.2-11.8-.8-17.8-2-17.8-3.8-1.4-.9-2.1-2.2-2.1-4 0-1.6.8-3.5 2.5-5.6 10.2-7 29-10.5 29-10.5zM63.1 63h1.5c1.8 0 3.3.8 4.4 2.4v.6l-8 19.8c-1.9 3.5-3.8 8.4-5.7 14.8l-.6.4h-.6l-.8-.4-.2 1.4h-.4l-1-.6-2.1.2-1.5-1.9L42.5 76h-.2l-8.4 17.5c-.9 2-1.7 4.3-2.1 6.9l.2.2v-.9s-.5 1.6-.8 1.3h-.6l-2-1h-.4l-.8.3-.6-.2-.4.4-.2.5H26l-.2-.5L24 98v-.8c0-2.4 3.2-9.8 9.5-22.3l4.8-10.3c.7-.6 3-1 6.8-1.2.9 0 2.9 2 2.9 2v.3c.9 4.2 2.2 9 3.9 20.9 2.6-7.2 5.5-12.6 7.9-20.5.5-1.8 1.3-2.6 2.4-2.6-.1-.3.3-.4.9-.5zm29.1.8c0 .5.3.8.8.8v.4h-1v.2c.9 0 1.2.1 1 .4v.4h-.6s.4.4 1.6.4v.6h-1 2.3l1.8 1H97v.2c.7 0 1 .1 1 .4 0 .5-2.4 1-7 1.5-1.6 0-4.6.9-9.1 2.7L79.8 77h-.2s2.7-.4 6-.5l.4.6-1 .2v.2c1.4 0 2 .1 2 .4l-1 .4V78h.4l-.4 1c0 .7.5 1.2 1 1.6v.6c.7 0 1 .1 1 .4v.4c0 .4-3.8 1.3-11.5 3-1 0-2.2 1.8-3.7 5.5L86 88.3v.7h.2l.9-.2c.2.7.5 1 .9 1v.2s-.2.2-.6 0H87v1h1-.8l.8.4v.5l-.2.2c1.9 0 2.9.3 3.1 1l-.2.2c.7.1 1 .3 1 .6-1.1.7-5.1 1.7-11.8 2.9-7.8 1.3-11.8 2.5-11.8 3.5-.2.7-.8 1.2-1.7 1.7h-.2l-1.1-1h-.4l-1 .2c0-.3-.6-.7-1.9-1l-.6.1-.2-.2V99h-.4l-.2 1h-.2l-.2-.2v-.2c1.1-3.9 5.8-14.9 14.4-33.1 0-1.3.9-2.1 2.7-2.3l7.5.2 7.6-.6z" fill="url(#paint1_linear)"/><path d="M162.721 20.454v21.12c-.015 2.64-1.178 4.027-3.296 4.027-2.029 0-3.267-1.298-3.341-3.67h-7.353c-.03 6.578 4.564 9.487 10.276 9.487 6.473 0 10.977-3.893 10.992-9.844v-21.12h-7.278zm18.371 30.934c3.192 0 5.399-1.238 6.652-3.58h.179V51h6.861V35.429c0-4.847-4.31-7.636-10.142-7.636-6.16 0-9.65 3.102-10.232 7.278l6.727.239c.313-1.462 1.521-2.357 3.445-2.357 1.79 0 2.924.865 2.924 2.401v.075c0 1.402-1.522 1.7-5.429 2.043-4.639.388-8.517 2.103-8.517 7.174 0 4.534 3.147 6.742 7.532 6.742zm2.252-4.773c-1.685 0-2.878-.805-2.878-2.327 0-1.476 1.163-2.371 3.236-2.684 1.357-.194 3.028-.492 3.848-.925v2.177c0 2.238-1.879 3.76-4.206 3.76zm37.302-18.524h-7.681l-4.236 15.78h-.238l-4.221-15.78h-7.681L204.434 51h8.352l7.86-22.91zm8.64 23.297c3.191 0 5.399-1.238 6.652-3.58h.178V51h6.861V35.429c0-4.847-4.31-7.636-10.142-7.636-6.16 0-9.65 3.102-10.231 7.278l6.726.239c.313-1.462 1.522-2.357 3.446-2.357 1.789 0 2.923.865 2.923 2.401v.075c0 1.402-1.521 1.7-5.429 2.043-4.639.388-8.516 2.103-8.516 7.174 0 4.534 3.147 6.742 7.532 6.742zm2.252-4.773c-1.686 0-2.879-.805-2.879-2.327 0-1.476 1.163-2.371 3.237-2.684 1.357-.194 3.027-.492 3.848-.925v2.177c0 2.238-1.88 3.76-4.206 3.76zm32.409-17.003h7.07c-.06-5.712-4.609-9.575-11.708-9.575-6.98 0-12.006 3.803-11.962 9.486-.015 4.638 3.237 7.248 8.517 8.456l3.191.746c3.356.776 4.863 1.685 4.892 3.4-.029 1.865-1.774 3.163-4.742 3.163-3.267 0-5.415-1.522-5.579-4.46h-7.069c.089 7.144 5.056 10.56 12.737 10.56 7.607 0 12.111-3.445 12.141-9.247-.03-4.877-3.326-7.86-9.352-9.188l-2.625-.597c-2.774-.596-4.534-1.52-4.474-3.34.015-1.67 1.446-2.879 4.31-2.879 2.879 0 4.46 1.298 4.653 3.475zm21.91 21.82c6.443 0 10.441-3.743 10.634-9.41h-6.816c-.268 2.43-1.73 3.758-3.728 3.758-2.566 0-4.236-2.163-4.236-6.235 0-4.041 1.685-6.204 4.236-6.204 2.088 0 3.445 1.417 3.728 3.758h6.816c-.164-5.637-4.28-9.306-10.649-9.306-7.204 0-11.559 4.802-11.559 11.827 0 6.995 4.326 11.813 11.574 11.813zM300.224 51h7.293V38.561c0-2.73 1.939-4.564 4.549-4.564.865 0 2.163.15 2.864.388v-6.339a8.337 8.337 0 00-2.043-.268c-2.506 0-4.505 1.461-5.34 4.489h-.239v-4.176h-7.084V51zm17.678 0h7.293V28.09h-7.293V51zm3.654-25.579c2.073 0 3.743-1.566 3.743-3.49 0-1.924-1.67-3.475-3.743-3.475-2.058 0-3.744 1.551-3.744 3.475 0 1.924 1.686 3.49 3.744 3.49zm8.281 34.17h7.294V47.286h.149c.924 2.118 2.983 4.042 6.443 4.042 5.071 0 9.158-3.967 9.158-11.768 0-8.083-4.326-11.767-9.113-11.767-3.625 0-5.608 2.117-6.488 4.22h-.224v-3.922h-7.219v31.5zm7.144-20.046c0-3.743 1.551-6.055 4.221-6.055 2.7 0 4.191 2.371 4.191 6.055 0 3.7-1.491 6.1-4.191 6.1-2.67 0-4.221-2.386-4.221-6.1zm32.653-11.454h-4.132v-5.489h-7.293v5.489h-3.028v5.37h3.028V44.6c-.045 4.64 2.968 6.966 8.113 6.727 1.76-.09 3.028-.447 3.729-.656l-1.104-5.265c-.313.075-1.044.224-1.595.224-1.179 0-1.85-.478-1.85-1.835V33.46h4.132v-5.37zM176.308 71.454h-7.368v17.6h-.253l-12.022-17.6h-6.353V102h7.383V84.37h.193L170.044 102h6.264V71.454zm15.336 30.979c7.204 0 11.574-4.758 11.574-11.813 0-7.07-4.37-11.827-11.574-11.827-7.203 0-11.574 4.757-11.574 11.827 0 7.055 4.371 11.813 11.574 11.813zm.045-5.504c-2.699 0-4.191-2.565-4.191-6.354 0-3.803 1.492-6.383 4.191-6.383 2.61 0 4.102 2.58 4.102 6.383 0 3.789-1.492 6.354-4.102 6.354zM206.954 102h7.294V89.561c0-2.73 1.939-4.564 4.549-4.564.865 0 2.162.15 2.863.388v-6.339a8.33 8.33 0 00-2.043-.268c-2.506 0-4.504 1.461-5.339 4.489h-.239v-4.176h-7.085V102zm31.635-22.91h-4.132v-5.488h-7.293v5.489h-3.028v5.37h3.028V95.6c-.045 4.639 2.968 6.966 8.114 6.727a15.252 15.252 0 003.728-.656l-1.103-5.265c-.314.075-1.045.224-1.596.224-1.179 0-1.85-.478-1.85-1.835V84.46h4.132v-5.37zm11.506 9.845c.015-2.61 1.566-4.162 3.878-4.162 2.342 0 3.699 1.507 3.684 4.057V102h7.293V87.398c.015-5.19-3.147-8.605-7.964-8.605-3.43 0-5.847 1.685-6.876 4.504h-.253V71.454h-7.055V102h7.293V88.935zM278.527 102h21.298v-5.996h-13.916v-6.279h12.827v-6.01h-12.827V77.45h13.916v-5.996h-21.298V102zm32.38.388c3.191 0 5.399-1.238 6.652-3.58h.179V102h6.86V86.429c0-4.847-4.31-7.636-10.142-7.636-6.159 0-9.65 3.102-10.231 7.278l6.726.239c.314-1.462 1.522-2.357 3.446-2.357 1.789 0 2.923.865 2.923 2.401v.075c0 1.402-1.521 1.7-5.429 2.043-4.639.388-8.516 2.103-8.516 7.174 0 4.534 3.147 6.742 7.532 6.742zm2.252-4.773c-1.686 0-2.879-.805-2.879-2.327 0-1.476 1.164-2.371 3.237-2.684 1.357-.194 3.027-.492 3.848-.925v2.177c0 2.238-1.88 3.76-4.206 3.76zm35.9-11.53c-.388-4.533-4.102-7.292-10.307-7.292-6.204 0-10.156 2.7-10.127 7.293-.029 3.52 2.223 5.787 6.801 6.637l3.998.76c1.894.373 2.759.97 2.789 1.984-.03 1.149-1.313 1.91-3.177 1.91-2.073 0-3.475-.895-3.788-2.566l-7.204.18c.522 4.533 4.414 7.442 10.962 7.442 6.13 0 10.59-3.058 10.619-7.771-.029-3.341-2.237-5.325-6.801-6.205l-4.415-.835c-1.938-.388-2.565-1.074-2.55-1.954-.015-1.163 1.342-1.879 3.028-1.879 1.924 0 3.266 1.03 3.475 2.476l6.697-.18zm17.088-6.994h-4.131v-5.489h-7.294v5.489h-3.027v5.37h3.027V95.6c-.044 4.639 2.969 6.966 8.114 6.727a15.253 15.253 0 003.729-.656l-1.104-5.265c-.313.075-1.044.224-1.596.224-1.178 0-1.849-.478-1.849-1.835V84.46h4.131v-5.37z" fill="#150E3D"/><defs><linearGradient id="paint0_linear" x1="-6.491" y1="145.945" x2="148.59" y2="133.218" gradientUnits="userSpaceOnUse"><stop stop-color="#A26BFC"/><stop offset=".516" stop-color="#682EC6"/><stop offset=".974" stop-color="#4220A3"/></linearGradient><linearGradient id="paint1_linear" x1="15.201" y1="102" x2="108.886" y2="97.647" gradientUnits="userSpaceOnUse"><stop stop-color="#FFE358"/><stop offset=".516" stop-color="#F9CC2F"/><stop offset="1" stop-color="#FFC01E"/></linearGradient></defs></svg>
