<svg viewBox="0 0 115 139" fill="none" xmlns="http://www.w3.org/2000/svg"><g filter="url(#filter0_d)"><path d="M57.5 24C39.005 24 24 39.208 24 57.953c0 13.689 4.71 17.507 30.057 54.761.386.564.9 1.025 1.5 1.343a4.146 4.146 0 003.886 0 4.203 4.203 0 001.5-1.343C86.288 75.46 91 71.642 91 57.953 91 39.208 75.995 24 57.5 24zm0 50.93c-3.313 0-6.551-.997-9.306-2.862a16.93 16.93 0 01-6.169-7.619 17.19 17.19 0 01-.953-9.808 17.048 17.048 0 014.584-8.692 16.682 16.682 0 018.576-4.646 16.543 16.543 0 019.678.966 16.8 16.8 0 017.517 6.252 17.14 17.14 0 012.823 9.432c0 4.502-1.765 8.82-4.906 12.004A16.637 16.637 0 0157.5 74.929z" fill="url(#paint0_linear)"/><path d="M57.5 69.27a11.06 11.06 0 01-6.204-1.907 11.286 11.286 0 01-4.113-5.08 11.46 11.46 0 01-.635-6.538 11.366 11.366 0 013.056-5.795 11.122 11.122 0 015.718-3.097 11.029 11.029 0 016.451.644 11.2 11.2 0 015.012 4.168 11.427 11.427 0 011.882 6.288c0 3.001-1.177 5.88-3.27 8.002A11.092 11.092 0 0157.5 69.27z" fill="url(#paint1_linear)"/></g><defs><linearGradient id="paint0_linear" x1="16.044" y1="114.541" x2="100.813" y2="111.316" gradientUnits="userSpaceOnUse"><stop stop-color="#FFE358"/><stop offset=".516" stop-color="#F9CC2F"/><stop offset="1" stop-color="#FFC01E"/></linearGradient><linearGradient id="paint1_linear" x1="43.681" y1="69.27" x2="71.906" y2="67.838" gradientUnits="userSpaceOnUse"><stop stop-color="#FFE358"/><stop offset=".516" stop-color="#F9CC2F"/><stop offset="1" stop-color="#FFC01E"/></linearGradient><filter id="filter0_d" x="0" y="0" width="115" height="138.541" filterUnits="userSpaceOnUse" color-interpolation-filters="sRGB"><feFlood flood-opacity="0" result="BackgroundImageFix"/><feColorMatrix in="SourceAlpha" values="0 0 0 0 0 0 0 0 0 0 0 0 0 0 0 0 0 0 127 0" result="hardAlpha"/><feOffset/><feGaussianBlur stdDeviation="12"/><feColorMatrix values="0 0 0 0 0 0 0 0 0 0 0 0 0 0 0 0 0 0 0.25 0"/><feBlend in2="BackgroundImageFix" result="effect1_dropShadow"/><feBlend in="SourceGraphic" in2="effect1_dropShadow" result="shape"/></filter></defs></svg>