<svg width="1770" height="330" viewBox="0 0 1770 330" fill="none" xmlns="http://www.w3.org/2000/svg">
<path opacity="0.2" fill-rule="evenodd" clip-rule="evenodd" d="M0 290.941V172.246C36.6448 177.321 74.5225 182.303 112.4 186.896C260.867 204.896 409.333 216.896 557.8 192.896C621.425 182.61 685.05 165.714 748.678 148.816L748.679 148.816L748.688 148.814L748.692 148.812C833.528 126.282 918.364 103.753 1003.2 96.8956C1073.07 91.2485 1142.93 96.2312 1212.8 101.214C1291.4 106.819 1370 112.425 1448.6 102.896C1568.9 88.311 1689.19 38.2745 1770 0.661377V16.9326C1764.21 20.8972 1757.41 25.2823 1749.51 30.1195C1730.32 41.8748 1713.22 52.8307 1697.41 62.9661C1573.98 142.07 1528.53 171.198 1171.51 140.301C971.282 122.973 844.09 176.155 714.215 230.459C582.848 285.386 448.736 341.462 233.514 326.879C136.254 320.289 57.7159 307.352 0 290.941Z" fill="url(#paint0_linear)"/>
<defs>
<linearGradient id="paint0_linear" x1="-6.59376e-06" y1="329.222" x2="1689.14" y2="-239.503" gradientUnits="userSpaceOnUse">
<stop stop-color="#534B7E"/>
<stop offset="0.515625" stop-color="#3C3565"/>
<stop offset="1" stop-color="#150E3D"/>
</linearGradient>
</defs>
</svg>
