<svg viewBox="0 0 1770 100" fill="none" xmlns="http://www.w3.org/2000/svg" role="presentation">
  <path fill-rule="evenodd" clip-rule="evenodd"
    d="M1770 23.9458L1721.33 36.529L1717.23 37.5571L1711.34 39.041C1658.95 52.2312 1567.62 75.2265 1475 89.3791C1323.68 112.5 1130.78 81.197 967.15 54.6445L967.146 54.6438C938.759 50.0373 911.254 45.5739 885 41.5622C859.706 37.6975 834.507 33.5029 809.357 29.3161C736.244 17.1452 663.53 5.04073 590 1.29562C491.175 -3.73759 393.825 6.32907 295 23.9458C204.076 40.154 114.401 62.7531 61.5854 76.0632C56.9958 77.2199 52.6846 78.3064 48.6748 79.3125L0 91.8957V100H1770V23.9458Z"
    fill="#C4C4C4" />
</svg>
