<svg width="20" height="20" viewBox="0 0 20 20" fill="none" xmlns="http://www.w3.org/2000/svg">
<path opacity="0.35" d="M10 0.3125C4.64844 0.3125 0.3125 4.64844 0.3125 10C0.3125 15.3516 4.64844 19.6875 10 19.6875C15.3516 19.6875 19.6875 15.3516 19.6875 10C19.6875 4.64844 15.3516 0.3125 10 0.3125ZM13.6129 12.5391L12.8316 13.5156C12.7804 13.5797 12.717 13.6331 12.6451 13.6727C12.5732 13.7123 12.4942 13.7373 12.4126 13.7464C12.331 13.7555 12.2485 13.7484 12.1696 13.7255C12.0908 13.7027 12.0172 13.6646 11.9531 13.6133L9.33594 11.6711C9.15307 11.5247 9.00546 11.339 8.90404 11.1279C8.80262 10.9167 8.74997 10.6854 8.75 10.4512V4.375C8.75 4.20924 8.81585 4.05027 8.93306 3.93306C9.05027 3.81585 9.20924 3.75 9.375 3.75H10.625C10.7908 3.75 10.9497 3.81585 11.0669 3.93306C11.1842 4.05027 11.25 4.20924 11.25 4.375V10L13.5156 11.6602C13.5798 11.7115 13.6331 11.7749 13.6727 11.8468C13.7123 11.9188 13.7374 11.9978 13.7464 12.0795C13.7554 12.1611 13.7483 12.2437 13.7254 12.3225C13.7025 12.4014 13.6642 12.475 13.6129 12.5391Z" fill="#2C264E"/>
<path d="M13.6129 12.5391L12.8316 13.5156C12.7804 13.5797 12.717 13.6331 12.6451 13.6727C12.5732 13.7123 12.4942 13.7373 12.4126 13.7464C12.331 13.7555 12.2485 13.7484 12.1696 13.7255C12.0908 13.7027 12.0172 13.6646 11.9531 13.6133L9.33594 11.6711C9.15307 11.5247 9.00546 11.339 8.90404 11.1279C8.80262 10.9167 8.74997 10.6854 8.75 10.4512V4.375C8.75 4.20924 8.81585 4.05027 8.93306 3.93306C9.05027 3.81585 9.20924 3.75 9.375 3.75H10.625C10.7908 3.75 10.9497 3.81585 11.0669 3.93306C11.1842 4.05027 11.25 4.20924 11.25 4.375V10L13.5156 11.6602C13.5798 11.7115 13.6331 11.7749 13.6727 11.8468C13.7123 11.9188 13.7374 11.9978 13.7464 12.0795C13.7554 12.1611 13.7483 12.2437 13.7254 12.3225C13.7025 12.4014 13.6642 12.475 13.6129 12.5391Z" fill="#150E3D"/>
</svg>
