<svg width="15" height="20" viewBox="0 0 15 20" fill="none" xmlns="http://www.w3.org/2000/svg">
<g clip-path="url(#clip0)">
<path opacity="0.35" d="M7.5 0C3.35938 0 0 3.35938 0 7.5C0 10.5238 1.05469 11.3672 6.7293 19.5965C6.81557 19.7211 6.93075 19.8229 7.06498 19.8932C7.19921 19.9635 7.34847 20.0002 7.5 20.0002C7.65153 20.0002 7.80079 19.9635 7.93502 19.8932C8.06925 19.8229 8.18443 19.7211 8.2707 19.5965C13.9453 11.3672 15 10.5238 15 7.5C15 3.35938 11.6406 0 7.5 0ZM7.5 11.25C6.75832 11.25 6.0333 11.0301 5.41661 10.618C4.79993 10.206 4.31928 9.62029 4.03545 8.93506C3.75162 8.24984 3.67736 7.49584 3.82206 6.76841C3.96675 6.04098 4.3239 5.3728 4.84835 4.84835C5.3728 4.3239 6.04098 3.96675 6.76841 3.82206C7.49584 3.67736 8.24984 3.75162 8.93506 4.03545C9.62029 4.31928 10.206 4.79993 10.618 5.41661C11.0301 6.0333 11.25 6.75832 11.25 7.5C11.25 8.49456 10.8549 9.44839 10.1517 10.1517C9.44839 10.8549 8.49456 11.25 7.5 11.25Z" fill="#2C264E"/>
<path d="M7.5 9.99994C7.00555 9.99994 6.5222 9.85332 6.11108 9.57861C5.69995 9.30391 5.37952 8.91346 5.1903 8.45665C5.00108 7.99983 4.95157 7.49717 5.04804 7.01221C5.1445 6.52726 5.3826 6.0818 5.73224 5.73217C6.08187 5.38254 6.52733 5.14444 7.01228 5.04798C7.49723 4.95151 7.9999 5.00102 8.45671 5.19024C8.91353 5.37946 9.30398 5.69989 9.57868 6.11101C9.85338 6.52214 10 7.00549 10 7.49994C10 8.16298 9.73662 8.79887 9.26777 9.26771C8.79893 9.73655 8.16305 9.99994 7.5 9.99994Z" fill="#150E3D"/>
</g>
<defs>
<clipPath id="clip0">
<rect width="15" height="20" fill="white"/>
</clipPath>
</defs>
</svg>
