<svg width="23" height="20" viewBox="0 0 23 20" fill="none" xmlns="http://www.w3.org/2000/svg">
<g clip-path="url(#clip0)">
<path opacity="0.35" d="M18.75 2.5H21.25V12.5C21.25 12.8315 21.1183 13.1495 20.8839 13.3839C20.6495 13.6183 20.3315 13.75 20 13.75H2.5C2.16848 13.75 1.85054 13.6183 1.61612 13.3839C1.3817 13.1495 1.25 12.8315 1.25 12.5V2.5H3.75V11.25H18.75V2.5Z" fill="#2C264E"/>
<path d="M21.875 0H0.625C0.45924 0 0.300269 0.065848 0.183058 0.183058C0.065848 0.300269 0 0.45924 0 0.625L0 1.875C0 2.04076 0.065848 2.19973 0.183058 2.31694C0.300269 2.43415 0.45924 2.5 0.625 2.5H21.875C22.0408 2.5 22.1997 2.43415 22.3169 2.31694C22.4342 2.19973 22.5 2.04076 22.5 1.875V0.625C22.5 0.45924 22.4342 0.300269 22.3169 0.183058C22.1997 0.065848 22.0408 0 21.875 0V0ZM12.5 15.1074V13.75H10V15.1074L7.0582 18.0492C7.00015 18.1073 6.9541 18.1762 6.92268 18.252C6.89126 18.3278 6.87509 18.4091 6.87509 18.4912C6.87509 18.5733 6.89126 18.6546 6.92268 18.7304C6.9541 18.8063 7.00015 18.8752 7.0582 18.9332L7.9418 19.8168C7.99984 19.8748 8.06874 19.9209 8.14458 19.9523C8.22042 19.9837 8.3017 19.9999 8.38379 19.9999C8.46588 19.9999 8.54716 19.9837 8.623 19.9523C8.69884 19.9209 8.76774 19.8748 8.82578 19.8168L11.25 17.3926L13.6742 19.8168C13.7323 19.8748 13.8012 19.9209 13.877 19.9523C13.9528 19.9837 14.0341 19.9999 14.1162 19.9999C14.1983 19.9999 14.2796 19.9837 14.3554 19.9523C14.4313 19.9209 14.5002 19.8748 14.5582 19.8168L15.4418 18.9332C15.4998 18.8752 15.5459 18.8063 15.5773 18.7304C15.6087 18.6546 15.6249 18.5733 15.6249 18.4912C15.6249 18.4091 15.6087 18.3278 15.5773 18.252C15.5459 18.1762 15.4998 18.1073 15.4418 18.0492L12.5 15.1074Z" fill="#150E3D"/>
</g>
<defs>
<clipPath id="clip0">
<rect width="22.5" height="20" fill="white"/>
</clipPath>
</defs>
</svg>
